<svg width="30" height="31" viewBox="0 0 30 31" fill="none" xmlns="http://www.w3.org/2000/svg">
<path d="M14.9999 28.5C16.3749 28.5 17.4999 27.375 17.4999 26H12.4999C12.4999 27.375 13.6124 28.5 14.9999 28.5ZM22.4999 21V14.75C22.4999 10.9125 20.4499 7.7 16.8749 6.85V6C16.8749 4.9625 16.0374 4.125 14.9999 4.125C13.9624 4.125 13.1249 4.9625 13.1249 6V6.85C9.53744 7.7 7.49994 10.9 7.49994 14.75V21L5.88744 22.6125C5.09994 23.4 5.64994 24.75 6.76244 24.75H23.2249C24.3374 24.75 24.8999 23.4 24.1124 22.6125L22.4999 21Z" fill="#7FB539"/>
</svg>
